<svg xmlns="http://www.w3.org/2000/svg" viewBox="0 0 921.98 603.15"><defs><style>.cls-1,.cls-2{fill:none;}.cls-1{stroke:#fff;stroke-width:36px;}.cls-1,.cls-2,.cls-3{stroke-linecap:round;stroke-linejoin:round;}.cls-2,.cls-3{stroke:red;stroke-width:10px;}.cls-3{fill:red;}</style></defs><g id="Calque_2" data-name="Calque 2"><g id="Calque_11" data-name="Calque 11"><line class="cls-1" x1="96.95" y1="474.5" x2="96.95" y2="366.5"/><path class="cls-1" d="M78.45,406s-11,26-25,27-18-9-18-13,3-21,11-34,59-84,110-102,62,13,47,47-32,58-67,82c24-18,56-46,95-47s32,50,8,96-111,119-175,123-66-75,20-116"/><path class="cls-1" d="M253.76,427.63S288,404.5,301,382.5s21-42,17-55-26-3-38,20-18,56-9,77,33,16,44,10,24-27,27-49"/><line class="cls-1" x1="341.95" y1="419.5" x2="341.95" y2="307.5"/><line class="cls-1" x1="793.95" y1="153" x2="793.95" y2="47"/><path class="cls-1" d="M342,326.84s17-31.61,40-43.58,30,17.49,30,22.1v46c0,9,7.8,21,15.34,16.93,0,0,25.66-10.83,24.66-30.83"/><path class="cls-1" d="M794,68.84s17-31.61,40-43.58,30,17.49,30,22.1v46c0,9,7.8,21,15.34,16.93,0,0,25.66-10.83,24.66-30.83"/><path class="cls-1" d="M643,154.84s17-31.61,40-43.58,30,17.49,30,22.1v46c0,9,7.8,21,15.34,16.93,0,0,26.66-11.83,25.66-31.83"/><path class="cls-1" d="M452,240.5v257c0,72-143,93-118,14s78-91,86-89,0,17,0,17"/><path class="cls-1" d="M492,321.5s2,11-14,20-26-.38-26-.38"/><path class="cls-1" d="M557,201.69s-27-3.9-46,6.82-41,41.89-41,68.19,7,41.89,22,44.81,57-13.64,57-52.6v12.66c0,12.66,30,18.51,30-11.69"/><line class="cls-1" x1="578.95" y1="271" x2="578.95" y2="167.5"/><path class="cls-1" d="M579,191.84s17-31.61,40-43.58,30,17.49,30,22.1v46"/><path class="cls-1" d="M753,68.5v89c0,29,41,5,41-5"/><circle class="cls-1" cx="451.95" cy="197.5" r="9.5"/><circle class="cls-1" cx="752.95" cy="27.5" r="9.5"/></g><g id="Calque_2-2" data-name="Calque 2"><line class="cls-2" x1="96.95" y1="474.5" x2="96.95" y2="366.5"/><path class="cls-2" d="M78.45,406s-11,26-25,27-18-9-18-13,3-21,11-34,59-84,110-102,62,13,47,47-32,58-67,82c24-18,56-46,95-47s32,50,8,96-111,119-175,123-66-75,20-116"/></g><g id="Calque_4" data-name="Calque 4"><path class="cls-2" d="M253.76,427.63S288,404.5,301,382.5s21-42,17-55-26-3-38,20-18,56-9,77,33,16,44,10,24-27,27-49"/></g><g id="Calque_5" data-name="Calque 5"><line class="cls-2" x1="341.95" y1="419.5" x2="341.95" y2="307.5"/><line class="cls-2" x1="793.95" y1="153" x2="793.95" y2="47"/><path class="cls-2" d="M342,326.84s17-31.61,40-43.58,30,17.49,30,22.1v46c0,9,7.8,21,15.34,16.93,0,0,25.66-10.83,24.66-30.83"/><path class="cls-2" d="M794,68.84s17-31.61,40-43.58,30,17.49,30,22.1v46c0,9,7.8,21,15.34,16.93,0,0,25.66-10.83,24.66-30.83"/><path class="cls-2" d="M643,154.84s17-31.61,40-43.58,30,17.49,30,22.1v46c0,9,7.8,21,15.34,16.93,0,0,26.66-11.83,25.66-31.83"/></g><g id="Calque_6" data-name="Calque 6"><path class="cls-2" d="M452,240.5v257c0,72-143,93-118,14s78-91,86-89,0,17,0,17"/><path class="cls-2" d="M492,321.5s2,11-14,20-26-.38-26-.38"/></g><g id="Calque_7" data-name="Calque 7"><path class="cls-2" d="M557,201.69s-27-3.9-46,6.82-41,41.89-41,68.19,7,41.89,22,44.81,57-13.64,57-52.6v12.66c0,12.66,30,18.51,30-11.69"/></g><g id="Calque_8" data-name="Calque 8"><line class="cls-2" x1="578.95" y1="271" x2="578.95" y2="167.5"/><path class="cls-2" d="M579,191.84s17-31.61,40-43.58,30,17.49,30,22.1v46"/></g><g id="Calque_9" data-name="Calque 9"><path class="cls-2" d="M753,68.5v89c0,29,41,5,41-5"/></g><g id="Calque_10" data-name="Calque 10"><circle class="cls-3" cx="451.95" cy="197.5" r="9.5"/><circle class="cls-3" cx="752.95" cy="27.5" r="9.5"/></g></g></svg>