<svg xmlns="http://www.w3.org/2000/svg" xmlns:xlink="http://www.w3.org/1999/xlink" viewBox="0 0 440 533"><defs><style>.cls-1{fill:none;}.cls-2{fill:#fff5ee;}.cls-3{fill:#e95b1b;}.cls-4{fill:#0aa672;}.cls-5{fill:#96c44b;}.cls-6{clip-path:url(#clip-path);}.cls-7{opacity:0.5;}.cls-8{fill:#e24d4d;}.cls-9{fill:#f29100;}.cls-10{clip-path:url(#clip-path-2);}.cls-11{opacity:0.75;}.cls-12{fill:#1c171c;}.cls-13{fill:#523515;}.cls-14{fill:#bf193d;}</style><clipPath id="clip-path"><path class="cls-1" d="M268.8,128.4c16.18,1.64,56,18.37,87.83,68.85,19.41,29.65,41.43,97.46-3.71,169.34s-107.7-80.88-113.74-103.8-22.75-39.46-26.46-67.71c-1.67-12.31-3.16-17.22,5.91-40.29S252.6,126.73,268.8,128.4Z"/></clipPath><clipPath id="clip-path-2"><path class="cls-1" d="M216,223.33c19.24-25.27,11.7-74-20.22-88.46s-57.5,6.57-69.93,15.47-60.34,51.41-63,105.7c-2.52,61.16,88.47,91.9,142.4,86.41s73.61-.91,91.88,20.78-8.34,59.5-8.34,59.5,37.23-17.34,56.49-45.5,13.19-55.2-11.07-69.5-52.09-9.76-81.87-25.28S196.74,248.73,216,223.33Z"/></clipPath></defs><g id="Calque_2" data-name="Calque 2"><g id="Calque_2-2" data-name="Calque 2"><rect class="cls-2" width="440" height="533" rx="64.34"/><g id="Layer_2" data-name="Layer 2"><g id="Layer_1-2" data-name="Layer 1-2"><path class="cls-3" d="M378.87,279.14A159.44,159.44,0,1,1,118.13,155.85h0c-.94,44.8,47.26,81.33,106.74,81.33,55.31,0,100.75-31.51,106.16-71.9A158.86,158.86,0,0,1,378.87,279.14Z"/><path class="cls-4" d="M250.53,156.28s-9.43-29.65-26.69-45.93S180,88,162.55,82.07s-32.46-41.58-32.46-41.58-4.27,24.57.53,34.28a57.71,57.71,0,0,1-24.19-14.61c-10.59-10.47-18.07-27.1-18.07-27.1S84.6,62,96.7,77.8s31.8,20.5,31.8,20.5a54.76,54.76,0,0,1-33.16-9.43c1.09,7.33,5.56,13.39,15.82,21.46,5.46,4.29,19.67,20.37,59.27,10.74s74.84,38.49,74.84,38.49Z"/><path class="cls-5" d="M179.43,154.41s9.58-29.62,26.92-45.75,43.9-22.19,61.42-28,32.6-41.43,32.6-41.43,4.15,24.6-.71,34.28A57.6,57.6,0,0,0,323.9,59c10.74-10.31,18.28-27,18.28-27s3.64,29-8.55,44.69-31.79,20.22-31.79,20.22A54.76,54.76,0,0,0,335,87.66C333.81,95,329.31,101,319,109c-5.49,4.27-19.77,20.22-59.32,10.46s-75,38.19-75,38.19Z"/><path class="cls-3" d="M268.8,128.4c16.18,1.64,56,18.37,87.83,68.85,19.41,29.65,41.43,97.46-3.71,169.34s-107.7-80.88-113.74-103.8-26.89-14.33-30.73-42.59c-1.67-12.31,1-42.39,10.11-65.46S252.6,126.73,268.8,128.4Z"/><g class="cls-6"><g class="cls-7"><ellipse class="cls-8" cx="230.46" cy="199.31" rx="12.92" ry="7.36" transform="translate(-67.95 137.76) rotate(-29.2)"/><ellipse class="cls-8" cx="308.41" cy="155.23" rx="12.92" ry="7.36" transform="translate(-36.54 170.19) rotate(-29.2)"/></g></g><path class="cls-9" d="M216,223.33c19.24-25.27,11.7-74-20.22-88.46s-57.5,6.57-69.93,15.47-60.34,51.41-63,105.7c-2.52,61.16,30.33,110,96.73,97.13s102.42-24.36,123.24-.91-14.91,72.44-22.42,81.06c26.72-10,48.23-17.69,77.32-62.13,18.25-33.92,5.21-77.82-19.59-91.67-48-22.75-80.07,1.16-98.44-8.75S202.68,239.66,216,223.33Z"/><g class="cls-10"><g class="cls-7"><ellipse class="cls-8" cx="129.1" cy="157.7" rx="7.36" ry="12.92" transform="translate(-72.03 190.66) rotate(-60)"/><ellipse class="cls-8" cx="219.68" cy="197.55" rx="7.36" ry="12.92" transform="translate(-61.25 289.03) rotate(-60)"/></g></g><g class="cls-11"><circle class="cls-12" cx="240.9" cy="179.61" r="4.47"/><circle class="cls-12" cx="284.25" cy="155.95" r="4.47"/><path class="cls-12" d="M265.49,183.17a12.84,12.84,0,0,1-11.12-6.12,1.74,1.74,0,0,1,.66-2.32,1.69,1.69,0,0,1,2.31.63v0a9.61,9.61,0,0,0,12.16,3.46,7.21,7.21,0,0,0,3.56-4.55,9.68,9.68,0,0,0-.78-7.38,1.7,1.7,0,0,1,3-1.67,13,13,0,0,1,1.08,10.11,10.6,10.6,0,0,1-5.25,6.57A12,12,0,0,1,265.49,183.17Z"/></g><g class="cls-11"><circle class="cls-12" cx="196.84" cy="179.61" r="4.47"/><circle class="cls-12" cx="153.47" cy="155.95" r="4.47"/><path class="cls-12" d="M163.88,166.08a10.56,10.56,0,0,0,3.54,14.29,11.26,11.26,0,0,0,14.44-4.15"/></g><path class="cls-13" d="M81.16,478.44a16,16,0,0,0-2.65-4.54,5.13,5.13,0,0,0-3.34-1.35v-3.29h1.11a1.93,1.93,0,0,0,1.16.33,10.59,10.59,0,0,1,5.72,1.57,12.33,12.33,0,0,1,4.39,5.68l5.36,12.82,8.34-17.87h1.91l-11.88,27.8H90.12Z"/><path class="cls-13" d="M112.5,496.2a11.94,11.94,0,0,1-4.22-5.23,19.76,19.76,0,0,1,0-14.81,12.2,12.2,0,0,1,4.14-5.28,10.52,10.52,0,0,1,6.34-1.92,11.28,11.28,0,0,1,9.08,3.36,14.38,14.38,0,0,1,2.93,9.73v2.37H112.5a14.42,14.42,0,0,0,2.14,8.17,6.76,6.76,0,0,0,5.92,3.16,8.73,8.73,0,0,0,4.73-1.19A12.37,12.37,0,0,0,128.9,491l1.19.88a13.1,13.1,0,0,1-4.6,4.78,12.29,12.29,0,0,1-6.14,1.49A11.81,11.81,0,0,1,112.5,496.2ZM125.67,482a16.5,16.5,0,0,0-1.54-8,5,5,0,0,0-4.7-2.81,4.42,4.42,0,0,0-3.21,1.39,9.34,9.34,0,0,0-2.25,3.84,17.64,17.64,0,0,0-.81,5.49Z"/><path class="cls-13" d="M139,507.78a7.59,7.59,0,0,1-3.54-7A6.86,6.86,0,0,1,137.3,496a10.86,10.86,0,0,1,4.7-3,4,4,0,0,1-2.38-3.54,2.91,2.91,0,0,1,.53-1.85,9.8,9.8,0,0,1,1.54-1.41,8.37,8.37,0,0,1-3.08-3,8.94,8.94,0,0,1-1.26-4.78c0-6,3.76-8.92,11.32-9.15H161.1V471l-5,.61v.23a10.09,10.09,0,0,1,2.78,2.73,6.64,6.64,0,0,1,1.16,3.89q0,8.94-11.3,8.95c-4.17,0-6.26.68-6.26,2.07s2.09,2.1,6.26,2.1a17.65,17.65,0,0,1,9.43,2.27,8.59,8.59,0,0,1,0,14,18.08,18.08,0,0,1-9.55,2.2A18.16,18.16,0,0,1,139,507.78Zm15.16-.61a6.26,6.26,0,0,0,2.1-5.05c0-4-2.37-6.25-7.15-6.85l-3.29-.31a8.72,8.72,0,0,0-3.74,2.68,7.23,7.23,0,0,0-1.31,4.48,6.26,6.26,0,0,0,2.1,5.05,10.31,10.31,0,0,0,11.34,0Zm-.63-23.55a7,7,0,0,0,1.64-5.21,7.22,7.22,0,0,0-1.64-5.06,5.69,5.69,0,0,0-4.3-1.71,5.83,5.83,0,0,0-4.32,1.64,9.07,9.07,0,0,0,0,10.41,6.48,6.48,0,0,0,8.62,0Z"/><path class="cls-13" d="M170.65,496.2a12.14,12.14,0,0,1-4.22-5.23,19.76,19.76,0,0,1,0-14.81,12.33,12.33,0,0,1,4.22-5.28A10.53,10.53,0,0,1,177,469a11.26,11.26,0,0,1,9,3.36,14.26,14.26,0,0,1,2.93,9.73v2.37H170.65a14.43,14.43,0,0,0,2.15,8.17,6.75,6.75,0,0,0,5.92,3.16,8.7,8.7,0,0,0,4.72-1.19,12.41,12.41,0,0,0,3.62-3.56l1.19.88a13.18,13.18,0,0,1-4.6,4.78,12.35,12.35,0,0,1-6.12,1.49A11.9,11.9,0,0,1,170.65,496.2ZM184,482a16.5,16.5,0,0,0-1.54-8,5.06,5.06,0,0,0-4.63-2.81,4.45,4.45,0,0,0-3.21,1.39,9.34,9.34,0,0,0-2.25,3.84,17.94,17.94,0,0,0-.81,5.49Z"/><path class="cls-13" d="M196.23,496.08a4.42,4.42,0,0,1-1.31-2.41,22.59,22.59,0,0,1-.27-4.19h1.26a7.86,7.86,0,0,0,2.67,4.86,9.37,9.37,0,0,0,6.06,1.74,9.25,9.25,0,0,0,5.35-1.2,3.72,3.72,0,0,0,1.74-3.21,4.28,4.28,0,0,0-1.37-3.15,13.76,13.76,0,0,0-4.3-2.51l-3.79-1.58a15.8,15.8,0,0,1-5.77-3.55,7.57,7.57,0,0,1,.64-10.68c.12-.1.24-.21.37-.3a12.11,12.11,0,0,1,7.48-2.17c4.62,0,7.78.83,9.46,2.51a4.44,4.44,0,0,1,1.31,2.38,23,23,0,0,1,.27,4.22h-1.26A7.62,7.62,0,0,0,212.1,472a9,9,0,0,0-5.88-1.74,7.57,7.57,0,0,0-4.62,1.23,3.73,3.73,0,0,0-1.66,3.18c0,2.19,1.66,4,5,5.35l3.79,1.57a19.45,19.45,0,0,1,6.22,3.74,7.48,7.48,0,0,1-.48,10.57,6.32,6.32,0,0,1-.64.52,13.52,13.52,0,0,1-8,2.19C201.12,498.62,197.86,497.76,196.23,496.08Z"/><path class="cls-13" d="M224.29,477.72a9.76,9.76,0,0,0-.79-4.47,3.24,3.24,0,0,0-3.15-1.46h-1.12v-2.53h5.06a6.83,6.83,0,0,1,3.24.6,3.24,3.24,0,0,1,1.55,1.93h.26a8.21,8.21,0,0,1,2.89-2.2,10.83,10.83,0,0,1,4.77-.88,8.48,8.48,0,0,1,7.46,3.89,17.29,17.29,0,0,1,2.65,9.87,16.91,16.91,0,0,1-2.77,9.87,9.19,9.19,0,0,1-8,3.89,14.53,14.53,0,0,1-3.77-.46,19.29,19.29,0,0,1-3.27-1.24V509.7h-5.05Zm12.42,18.38a6.23,6.23,0,0,0,4-3.57,18.51,18.51,0,0,0,1.63-8.46,19.69,19.69,0,0,0-1.72-8.85,5.52,5.52,0,0,0-5.06-3.36,7.09,7.09,0,0,0-6.27,3.57v19.1a30,30,0,0,0,3.11,1.29A7.12,7.12,0,0,0,236.71,496.1Z"/><path class="cls-13" d="M254.62,465.08a9.76,9.76,0,0,0-.79-4.47,3.28,3.28,0,0,0-3.15-1.46h-1.12v2.53h5.62s2.26-2.79,3.31-2.35a3.24,3.24,0,0,1,1.57,2,5.54,5.54,0,0,1-.39,4.53v6.54c1.81-.9,2.91-1.62,4.13-2.09a11,11,0,0,1,4.5-.86,10.86,10.86,0,0,1,7.28,2.37c2.13,2.23,3.16,5.28,1.79,8.34v16.86h-5.06V479.19a8.52,8.52,0,0,0-1.89-6.11,6.25,6.25,0,0,0-4.72-1.92,8.11,8.11,0,0,0-6,3.15v22.75h-5.05Z"/><path class="cls-13" d="M289.52,496.2A12,12,0,0,1,285.3,491a19.76,19.76,0,0,1,0-14.81,12.22,12.22,0,0,1,4.15-5.28,10.5,10.5,0,0,1,6.34-1.92,11.26,11.26,0,0,1,9,3.36,14.44,14.44,0,0,1,2.94,9.73v2.37H289.52a14.43,14.43,0,0,0,2.15,8.17,6.76,6.76,0,0,0,5.89,3.16,8.78,8.78,0,0,0,4.75-1.19,12.41,12.41,0,0,0,3.62-3.56l1.18.88a13,13,0,0,1-4.6,4.78,12.27,12.27,0,0,1-6.14,1.49A11.81,11.81,0,0,1,289.52,496.2ZM303.4,482a16.5,16.5,0,0,0-1.54-8,5.06,5.06,0,0,0-4.83-2.81,4.45,4.45,0,0,0-3.21,1.39,9.45,9.45,0,0,0-2.25,3.84,17.93,17.93,0,0,0-.8,5.49Z"/><path class="cls-13" d="M315.4,478a10.57,10.57,0,0,0-.79-4.66,3.22,3.22,0,0,0-3.15-1.52h-1.24v-2.53H315a7.81,7.81,0,0,1,3.48.6,3.32,3.32,0,0,1,1.66,1.93h.28a9.29,9.29,0,0,1,7.25-3.08,6.28,6.28,0,0,1,3.63.84,8.44,8.44,0,0,1,2.1,2.52l-2.41,1.7a3.68,3.68,0,0,0-1.94-1.27,9.12,9.12,0,0,0-2.89-.43,7.38,7.38,0,0,0-3.31.77,6.45,6.45,0,0,0-2.56,2.05v24.7h-5.05Z"/><path class="cls-13" d="M342.6,496.2a11.94,11.94,0,0,1-4.22-5.23,19.76,19.76,0,0,1,0-14.81,12.22,12.22,0,0,1,4.15-5.28,10.48,10.48,0,0,1,6.34-1.92,11.26,11.26,0,0,1,9,3.36,14.38,14.38,0,0,1,2.93,9.73v2.37H342.7a14.35,14.35,0,0,0,2.15,8.17,6.74,6.74,0,0,0,5.92,3.16,8.7,8.7,0,0,0,4.72-1.19,12.41,12.41,0,0,0,3.62-3.56l1.18.88a13,13,0,0,1-4.6,4.78,12.29,12.29,0,0,1-6.14,1.49A11.83,11.83,0,0,1,342.6,496.2Zm13-14.3a16.78,16.78,0,0,0-1.54-8,5.07,5.07,0,0,0-4.71-2.73,4.54,4.54,0,0,0-3.23,1.39,9.66,9.66,0,0,0-2.23,3.84,17.93,17.93,0,0,0-.8,5.49Z"/><path class="cls-14" d="M230.84,203.09c-15.9-7-22.75,20.22-22.75,20.22s-11.7-8.75-20.45.81-4,28.35,6.93,37.15c13.9,13.57,32.2,12.79,50.2,10.84s30.76-2.52,30.76-2.52-14.61-2.53-27.2-21.51S246.74,210.09,230.84,203.09Z"/></g></g></g></g></svg>