<svg xmlns="http://www.w3.org/2000/svg" xmlns:xlink="http://www.w3.org/1999/xlink" viewBox="0 0 390.36 757.82"><defs><style>.cls-1{fill:none;}.cls-2{clip-path:url(#clip-path);}.cls-3{fill:url(#Dégradé_sans_nom_108);}.cls-4{clip-path:url(#clip-path-2);}.cls-5{fill:#e1ecf6;opacity:0.72;}.cls-6{fill:#4b563d;}.cls-7{opacity:0.67;}.cls-8{clip-path:url(#clip-path-3);}.cls-9{fill:#71a1ad;}.cls-10{fill:#89a493;}.cls-11{fill:#2b1a33;}.cls-12{fill:#a6a061;}.cls-13{fill:#3a2447;}.cls-14{fill:#656c55;}</style><clipPath id="clip-path" transform="translate(1.63)"><rect class="cls-1" width="388.55" height="757.44"/></clipPath><linearGradient id="Dégradé_sans_nom_108" x1="-113.41" y1="1915.58" x2="-113.07" y2="1915.58" gradientTransform="matrix(0, -2198.59, -2198.59, 0, 4211772.53, -248592.33)" gradientUnits="userSpaceOnUse"><stop offset="0" stop-color="#c7d6bf"/><stop offset="0.12" stop-color="#c3d4bf"/><stop offset="0.24" stop-color="#b7d0c1"/><stop offset="0.37" stop-color="#a2c7c3"/><stop offset="0.49" stop-color="#86bcc6"/><stop offset="0.62" stop-color="#61adca"/><stop offset="0.74" stop-color="#349ccf"/><stop offset="0.8" stop-color="#1c92d2"/><stop offset="1" stop-color="#404fae"/></linearGradient><clipPath id="clip-path-2" transform="translate(1.63)"><rect class="cls-1" y="90.17" width="389.06" height="667.27"/></clipPath><clipPath id="clip-path-3" transform="translate(1.63)"><rect class="cls-1" x="57.22" y="604.28" width="204.21" height="133.9"/></clipPath></defs><g id="Calque_2" data-name="Calque 2"><g id="Calque_1-2" data-name="Calque 1"><g class="cls-2"><rect class="cls-3" x="1.63" width="388.55" height="757.44"/></g><g class="cls-4"><path class="cls-5" d="M273,496.78h115.6v-54.3s-22.94,3.22-35,14.77a5.18,5.18,0,0,1-4,1.43c-10-.8-21.87,5.65-26.53,9.74A5.16,5.16,0,0,1,320,469.7c-7.11.5-24.2,3.89-49.5,17.86a4.91,4.91,0,0,0,2.47,9.22" transform="translate(1.63)"/><path class="cls-5" d="M165.5,571.23H-.21A4.23,4.23,0,0,1-1.58,571l0-7.45c10.72-5.63,24.73-10.4,31.44-11.16a4.09,4.09,0,0,0,2.27-1c4.28-3.94,13-5,21.78-4.75a4,4,0,0,0,2.9-1.1c10.81-10.56,25.32-5,30.14-2.71A4,4,0,0,0,90,543c7.42-2.71,22.68.69,30,6.29a3.92,3.92,0,0,0,2.66.77c6.44-.39,13.26,2.27,20.1,5.73a4.39,4.39,0,0,0,1.92.44c6.36-.08,15.37,3.76,22.72,7.57a3.93,3.93,0,0,1-1.87,7.43" transform="translate(1.63)"/><path class="cls-6" d="M127.29,647.15l-.5-.13-3.5,1-3.5-1-.49.13,3.84-20.47a.16.16,0,0,1,.31,0Z" transform="translate(1.63)"/><path class="cls-6" d="M241.38,646.15l-.53-.14-3.7,1.06L233.44,646l-.53.14,4.07-21.7a.17.17,0,0,1,.33,0Z" transform="translate(1.63)"/><path class="cls-6" d="M105.85,632.35l-.5-.13-3.5,1-3.49-1-.5.13,3.84-20.47a.16.16,0,0,1,.31,0Z" transform="translate(1.63)"/><g class="cls-7"><g class="cls-8"><path class="cls-9" d="M60.75,707.68l101.78-99.94a12.19,12.19,0,0,1,17,0l78.36,76.94a11.73,11.73,0,0,1-5,19.65L141.53,737.67a12.38,12.38,0,0,1-5,.43L69.66,730a12.08,12.08,0,0,1-7.78-4.18L60,723.57a11.66,11.66,0,0,1,.76-15.89" transform="translate(1.63)"/></g></g><path class="cls-10" d="M126,667.8,10.37,702.42a12.78,12.78,0,0,1-5.18.44l-4.87-.59L0,599.12l32.19-31.6a12.65,12.65,0,0,1,17.65,0l96.84,95.18c6.66,6.54-11.65,2.4-20.67,5.1" transform="translate(1.63)"/><path class="cls-6" d="M214.64,673.22l-.89-.23-6.26,1.78L201.23,673l-.89.23,6.87-36.65a.28.28,0,0,1,.56,0Z" transform="translate(1.63)"/><path class="cls-10" d="M388.61,632.41l-.16,41.88L285.73,705a12.78,12.78,0,0,1-5.18.44l-69.43-8.42a12.55,12.55,0,0,1-8.08-4.34l-2-2.32a12.1,12.1,0,0,1,.78-16.5L307.54,570.14a12.65,12.65,0,0,1,17.65,0Z" transform="translate(1.63)"/><path class="cls-11" d="M27.87,649.65l-.85-.23-6,1.72-6-1.72-.86.23,6.61-35.23a.28.28,0,0,1,.54,0Z" transform="translate(1.63)"/><path class="cls-6" d="M99,663.48l-.88-.23L92,665l-6.19-1.76-.88.23,6.79-36.25a.28.28,0,0,1,.56,0Z" transform="translate(1.63)"/><path class="cls-6" d="M101.85,657.78l-.4-.11-2.85.81-2.86-.81-.4.11,3.13-16.69a.13.13,0,0,1,.25,0Z" transform="translate(1.63)"/><path class="cls-6" d="M335.42,660.05l-.86-.24-6.07,1.73-6.06-1.73-.87.24,6.66-35.51a.28.28,0,0,1,.55,0Z" transform="translate(1.63)"/><path class="cls-6" d="M259.46,680.1l-.58-.16-4,1.15-4.05-1.15-.58.16,4.44-23.69a.19.19,0,0,1,.37,0Z" transform="translate(1.63)"/><path class="cls-6" d="M263.18,680.31l-.45-.12-3.19.9-3.19-.9-.45.12,3.5-18.65a.15.15,0,0,1,.29,0Z" transform="translate(1.63)"/><path class="cls-12" d="M-.33,642.5s60.09.75,147.11,17.24,129,12.74,163.35,0,64.86-21,78.61-21v98.92H-.14Z" transform="translate(1.63)"/><path class="cls-13" d="M17.17,675.65l-.63-.17-4.4,1.25-4.4-1.25-.62.17L12,649.89a.2.2,0,0,1,.39,0Z" transform="translate(1.63)"/><path class="cls-6" d="M138.56,687.1l-.63-.17-4.4,1.26-4.4-1.26-.62.17,4.83-25.75a.2.2,0,0,1,.39,0Z" transform="translate(1.63)"/><path class="cls-6" d="M247.48,700.6l-.62-.17-4.4,1.26-4.4-1.26-.63.17,4.83-25.75a.2.2,0,0,1,.4,0Z" transform="translate(1.63)"/><path class="cls-13" d="M318.23,697.15l-.63-.17-4.4,1.25L308.8,697l-.62.17L313,671.4a.2.2,0,0,1,.4,0Z" transform="translate(1.63)"/><path class="cls-14" d="M-.67,670.41s68.28-9.43,148.42,3.86c59.44,9.86,168.7,15.41,201.59,6.83s39.38-8.44,39.38-8.44V757H-.35V686.26" transform="translate(1.63)"/><path class="cls-6" d="M82.32,739.35l-2.93-.79-20.64,5.88L38.1,738.56l-2.93.79L57.82,618.51a1,1,0,0,1,1.86,0Z" transform="translate(1.63)"/><path class="cls-6" d="M333.72,733.36l-2.86-.77-20.05,5.71-20.07-5.71-2.86.77,22-117.46a.92.92,0,0,1,1.8,0Z" transform="translate(1.63)"/><path class="cls-6" d="M49.42,737.59l-5-1.34-35,10L-.65,743.35l.24-166.67,8.27-44.11a1.6,1.6,0,0,1,3.14,0Z" transform="translate(1.63)"/><path class="cls-6" d="M388.73,636.91l-.32,116.18-16.62,4.73-33.33-9.49-4.74,1.28,36.58-195.1a1.52,1.52,0,0,1,3,0Z" transform="translate(1.63)"/></g></g></g></svg>