<svg xmlns="http://www.w3.org/2000/svg" xmlns:xlink="http://www.w3.org/1999/xlink" viewBox="0 0 440 533"><defs><style>.cls-1{fill:none;}.cls-2{fill:#fff5ee;}.cls-3{fill:#e95b1b;}.cls-4{fill:#0aa672;}.cls-5{fill:#96c44b;}.cls-6{clip-path:url(#clip-path);}.cls-7{opacity:0.5;}.cls-8{fill:#e24d4d;}.cls-9{fill:#f29100;}.cls-10{clip-path:url(#clip-path-2);}.cls-11{opacity:0.75;}.cls-12{fill:#1c171c;}.cls-13{fill:#523515;}.cls-14{fill:#bf193d;}</style><clipPath id="clip-path"><path class="cls-1" d="M267.85,127.78c15.74,1.6,54.52,17.87,85.45,67,18.88,28.85,40.3,94.81-3.62,164.74S244.91,280.81,239,258.51s-22.13-38.38-25.75-65.87c-1.62-12-3.07-16.74,5.76-39.19S252.09,126.15,267.85,127.78Z"/></clipPath><clipPath id="clip-path-2"><path class="cls-1" d="M216.44,220.13c18.71-24.59,11.39-71.94-19.67-86.06s-55.94,6.39-68,15.05-58.69,50-61.3,102.83C65,311.45,153.5,341.35,206,336s71.6-.88,89.37,20.21-8.11,57.88-8.11,57.88,36.22-16.87,54.95-44.26,12.84-53.7-10.77-67.61-50.67-9.49-79.64-24.59S197.76,244.84,216.44,220.13Z"/></clipPath></defs><g id="Calque_2" data-name="Calque 2"><g id="Calque_2-2" data-name="Calque 2"><rect class="cls-2" width="440" height="533" rx="64.34"/><g id="Layer_2" data-name="Layer 2"><g id="Layer_1-2" data-name="Layer 1-2"><path class="cls-3" d="M375.18,274.42A155.1,155.1,0,1,1,122.64,154.48c0,.42-1,.84-1,1.25-.08,43,46.47,77.87,103.78,77.87,53.8,0,98-30.66,103.27-69.95A154.58,154.58,0,0,1,375.18,274.42Z"/><path class="cls-4" d="M250.08,154.9s-9.17-28.84-26-44.68S181.5,88.49,164.49,82.71s-31.57-40.45-31.57-40.45-4.16,23.9.51,33.34A56.07,56.07,0,0,1,109.9,61.39C99.6,51.21,92.32,35,92.32,35s-3.66,28.18,8.12,43.52,30.93,19.94,30.93,19.94a53.17,53.17,0,0,1-32.26-9.17c1.06,7.13,5.41,13,15.39,20.88,5.31,4.18,19.13,19.82,57.66,10.45S245,158.09,245,158.09Z"/><path class="cls-5" d="M180.91,153.08s9.32-28.82,26.19-44.51S249.81,87,266.85,81.31,298.56,41,298.56,41s4,23.92-.68,33.34a56.11,56.11,0,0,0,23.58-14.09C331.91,50.23,339.23,34,339.23,34s3.54,28.2-8.31,43.47S300,97.14,300,97.14a53.16,53.16,0,0,0,32.21-9c-1.11,7.13-5.48,13-15.51,20.8-5.34,4.16-19.23,19.67-57.71,10.18s-73,37.15-73,37.15Z"/><path class="cls-3" d="M267.85,127.78c15.74,1.6,54.52,17.87,85.45,67,18.88,28.85,40.3,94.81-3.62,164.74S244.91,280.81,239,258.51s-26.16-13.94-29.9-41.43c-1.62-12,1-41.23,9.83-63.68S252.09,126.15,267.85,127.78Z"/><g class="cls-6"><g class="cls-7"><ellipse class="cls-8" cx="230.55" cy="196.76" rx="12.56" ry="7.16" transform="translate(-66.69 137.48) rotate(-29.2)"/><ellipse class="cls-8" cx="306.39" cy="153.88" rx="12.56" ry="7.16" transform="translate(-36.14 169.03) rotate(-29.2)"/></g></g><path class="cls-9" d="M216.44,220.13c18.71-24.59,11.39-71.94-19.67-86.06s-55.94,6.39-68,15.05-58.69,50-61.3,102.83C65,311.45,97,359,161.54,346.44s99.63-23.71,119.89-.89S266.92,416,259.62,424.4c26-9.68,46.91-17.21,75.21-60.43,17.75-33,5.07-75.71-19.05-89.18-46.72-22.13-77.9,1.13-95.77-8.51S203.53,236,216.44,220.13Z"/><g class="cls-10"><g class="cls-7"><ellipse class="cls-8" cx="131.95" cy="156.29" rx="7.16" ry="12.56" transform="translate(-69.37 192.42) rotate(-60)"/><ellipse class="cls-8" cx="220.07" cy="195.05" rx="7.16" ry="12.56" transform="translate(-58.89 288.11) rotate(-60)"/></g></g><g class="cls-11"><circle class="cls-12" cx="240.71" cy="177.59" r="4.35"/><circle class="cls-12" cx="282.88" cy="154.58" r="4.35"/><path class="cls-12" d="M264.63,181.06a12.48,12.48,0,0,1-10.81-5.95,1.7,1.7,0,0,1,.63-2.26,1.65,1.65,0,0,1,2.25.61l0,0a9.33,9.33,0,0,0,11.82,3.36,7,7,0,0,0,3.47-4.42,9.45,9.45,0,0,0-.76-7.18,1.65,1.65,0,1,1,2.87-1.62,12.59,12.59,0,0,1,1.06,9.83,10.29,10.29,0,0,1-5.11,6.39A11.64,11.64,0,0,1,264.63,181.06Z"/></g><g class="cls-11"><circle class="cls-12" cx="197.85" cy="177.59" r="4.35"/><circle class="cls-12" cx="155.66" cy="154.58" r="4.35"/><path class="cls-12" d="M165.79,164.44a10.25,10.25,0,0,0,3.44,13.89,10.94,10.94,0,0,0,14-4"/></g><path class="cls-13" d="M85.61,468.3A15.44,15.44,0,0,0,83,463.88a4.93,4.93,0,0,0-3.25-1.31v-3.2h.79a1.88,1.88,0,0,0,1.13.32,10.28,10.28,0,0,1,5.56,1.52,12.1,12.1,0,0,1,4.28,5.53l5.21,12.47,8.11-17.38H107l-11.56,27H94.33Z"/><path class="cls-13" d="M116.09,485.58a11.67,11.67,0,0,1-4.1-5.09,19.21,19.21,0,0,1,0-14.41,11.77,11.77,0,0,1,4-5.14,10.3,10.3,0,0,1,6.17-1.87,11,11,0,0,1,8.83,3.27,14,14,0,0,1,2.85,9.47v2.31H116.09a14.05,14.05,0,0,0,2.09,7.94,6.6,6.6,0,0,0,5.76,3.08,8.58,8.58,0,0,0,4.59-1.16,12,12,0,0,0,3.52-3.47l1.16.86a12.72,12.72,0,0,1-4.48,4.65,11.86,11.86,0,0,1-6,1.45A11.51,11.51,0,0,1,116.09,485.58Zm12.52-13.84a16,16,0,0,0-1.5-7.77,4.89,4.89,0,0,0-4.57-2.73,4.29,4.29,0,0,0-3.12,1.35,9.08,9.08,0,0,0-2.19,3.74,17.17,17.17,0,0,0-.79,5.33Z"/><path class="cls-13" d="M141.57,496.84a7.37,7.37,0,0,1-3.44-6.84,6.7,6.7,0,0,1,1.79-4.64,10.67,10.67,0,0,1,4.58-2.88,3.89,3.89,0,0,1-2.31-3.44,2.81,2.81,0,0,1,.51-1.8,9.72,9.72,0,0,1,1.5-1.37,8.24,8.24,0,0,1-3-2.95,8.85,8.85,0,0,1-1.23-4.65c0-5.8,3.67-8.68,11-8.9h12.39V461l-4.92.59v.22a16.84,16.84,0,0,1,2.41,2.65,6.42,6.42,0,0,1,1.13,3.79q0,8.7-11,8.7c-4,0-6.09.67-6.09,2s2,2,6.09,2a17.23,17.23,0,0,1,9.18,2.21,8.37,8.37,0,0,1,1.93,11.67,8.62,8.62,0,0,1-1.93,1.93,17.54,17.54,0,0,1-9.3,2.14A17.61,17.61,0,0,1,141.57,496.84Zm14.75-.59a6.13,6.13,0,0,0,2.05-4.92c0-3.86-2.32-6.07-7-6.66l-3.2-.3a8.35,8.35,0,0,0-3.64,2.61,7,7,0,0,0-1.28,4.35,6.12,6.12,0,0,0,2,4.92,10.06,10.06,0,0,0,11,0ZM156,473.33a6.85,6.85,0,0,0,1.6-5.06,7,7,0,0,0-1.6-4.92,5.54,5.54,0,0,0-4.18-1.67,5.7,5.7,0,0,0-4.21,1.6,8.83,8.83,0,0,0,0,10.13,6.31,6.31,0,0,0,8.39,0Z"/><path class="cls-13" d="M172.67,485.58a11.9,11.9,0,0,1-4.11-5.09,19.3,19.3,0,0,1,0-14.41,11.83,11.83,0,0,1,4.11-5.14,10.3,10.3,0,0,1,6.17-1.87,11,11,0,0,1,8.73,3.27,13.86,13.86,0,0,1,2.85,9.47v2.31H172.67a13.89,13.89,0,0,0,2.09,7.94,6.6,6.6,0,0,0,5.75,3.08,8.44,8.44,0,0,0,4.6-1.16,12,12,0,0,0,3.52-3.47l1.15.86a12.78,12.78,0,0,1-4.47,4.65,12,12,0,0,1-5.95,1.45A11.58,11.58,0,0,1,172.67,485.58Zm12.67-13.84a16.11,16.11,0,0,0-1.5-7.77,4.91,4.91,0,0,0-4.5-2.73,4.29,4.29,0,0,0-3.12,1.35,9.08,9.08,0,0,0-2.19,3.74,17.17,17.17,0,0,0-.79,5.33Z"/><path class="cls-13" d="M197.26,485.46a4.31,4.31,0,0,1-1.28-2.34,22.32,22.32,0,0,1-.26-4.08h1.22a7.7,7.7,0,0,0,2.6,4.73,9.16,9.16,0,0,0,5.9,1.69,8.92,8.92,0,0,0,5.2-1.17,3.6,3.6,0,0,0,1.69-3.12A4.12,4.12,0,0,0,211,478.1a13.31,13.31,0,0,0-4.18-2.44l-3.69-1.53a15.53,15.53,0,0,1-5.61-3.46,7.35,7.35,0,0,1,.62-10.38q.18-.17.36-.3a11.75,11.75,0,0,1,7.28-2.11c4.5,0,7.56.81,9.2,2.44a4.27,4.27,0,0,1,1.27,2.32,20.88,20.88,0,0,1,.26,4.1h-1.22a7.44,7.44,0,0,0-2.6-4.73,8.79,8.79,0,0,0-5.71-1.69,7.46,7.46,0,0,0-4.5,1.2,3.61,3.61,0,0,0-1.61,3.09c0,2.13,1.61,3.85,4.88,5.2l3.7,1.53A19.16,19.16,0,0,1,215.5,475a7.27,7.27,0,0,1-.47,10.28c-.2.18-.41.35-.62.51a13.2,13.2,0,0,1-7.8,2.13C202,487.93,198.84,487.1,197.26,485.46Z"/><path class="cls-13" d="M224.84,467.6a9.5,9.5,0,0,0-.76-4.35,3.16,3.16,0,0,0-3.06-1.42h-1.09v-2.46h4.91A6.6,6.6,0,0,1,228,460a3.18,3.18,0,0,1,1.51,1.88h.25a8,8,0,0,1,2.81-2.14,10.56,10.56,0,0,1,4.64-.86,8.26,8.26,0,0,1,7.26,3.79,16.75,16.75,0,0,1,2.57,9.6,16.41,16.41,0,0,1-2.69,9.6,8.91,8.91,0,0,1-7.74,3.78,14.63,14.63,0,0,1-3.67-.44,20,20,0,0,1-3.18-1.2v14.75h-4.92Zm12.09,17.88a6.07,6.07,0,0,0,3.94-3.47,18.06,18.06,0,0,0,1.58-8.23,19,19,0,0,0-1.67-8.61,5.36,5.36,0,0,0-4.92-3.27,6.91,6.91,0,0,0-6.1,3.47V484c1,.47,2,.88,3,1.25A6.88,6.88,0,0,0,236.93,485.48Z"/><path class="cls-13" d="M254.35,455.3a9.53,9.53,0,0,0-.77-4.35,3.18,3.18,0,0,0-3.06-1.42h-1.09V452h5.17s2.21-2.71,3.22-2.29a3.15,3.15,0,0,1,1.53,2,6.78,6.78,0,0,1-.08,4.4v6.37a25.72,25.72,0,0,1,3.72-2.05,10.73,10.73,0,0,1,4.37-.83,10.49,10.49,0,0,1,7.08,2.31,7.82,7.82,0,0,1,2,8.11v16.4h-4.92V469a8.3,8.3,0,0,0-1.84-5.95,6.12,6.12,0,0,0-4.59-1.87,7.86,7.86,0,0,0-5.86,3.08v22.12h-4.92Z"/><path class="cls-13" d="M288.31,485.58a11.7,11.7,0,0,1-4.11-5.09,19.21,19.21,0,0,1,0-14.41,11.84,11.84,0,0,1,4-5.14,10.32,10.32,0,0,1,6.17-1.87,11,11,0,0,1,8.73,3.27,14,14,0,0,1,2.85,9.47v2.31H288.31a13.89,13.89,0,0,0,2.09,7.94,6.55,6.55,0,0,0,5.72,3.08,8.54,8.54,0,0,0,4.63-1.16,12,12,0,0,0,3.51-3.47l1.16.86a12.72,12.72,0,0,1-4.48,4.65,11.86,11.86,0,0,1-6,1.45A11.48,11.48,0,0,1,288.31,485.58Zm13.21-13.84A16.23,16.23,0,0,0,300,464a4.92,4.92,0,0,0-4.7-2.73,4.29,4.29,0,0,0-3.12,1.35,9.08,9.08,0,0,0-2.19,3.74,17.17,17.17,0,0,0-.79,5.33Z"/><path class="cls-13" d="M313.48,467.84a10.42,10.42,0,0,0-.77-4.53,3.12,3.12,0,0,0-3.06-1.48h-1.21v-2.46h4.68a7.52,7.52,0,0,1,3.39.58,3.26,3.26,0,0,1,1.62,1.88h.27a9.06,9.06,0,0,1,7.05-3,6.18,6.18,0,0,1,3.53.82,8.28,8.28,0,0,1,2,2.45l-2.34,1.65a3.67,3.67,0,0,0-1.9-1.23,8.86,8.86,0,0,0-2.81-.42,7.08,7.08,0,0,0-3.21.75,6.18,6.18,0,0,0-2.49,2v24h-4.92Z"/><path class="cls-13" d="M339.94,485.58a11.7,11.7,0,0,1-4.11-5.09,19.3,19.3,0,0,1,0-14.41,11.87,11.87,0,0,1,4-5.14,10.28,10.28,0,0,1,6.17-1.87,11,11,0,0,1,8.73,3.27,14,14,0,0,1,2.85,9.47v2.31H340a13.89,13.89,0,0,0,2.09,7.94,6.59,6.59,0,0,0,5.75,3.08,8.62,8.62,0,0,0,4.6-1.16,12,12,0,0,0,3.52-3.47l1.15.86a12.78,12.78,0,0,1-4.47,4.65,11.87,11.87,0,0,1-6,1.45A11.5,11.5,0,0,1,339.94,485.58Zm12.35-13.92a16.16,16.16,0,0,0-1.5-7.77,4.91,4.91,0,0,0-4.57-2.65,4.36,4.36,0,0,0-3.15,1.35,9.15,9.15,0,0,0-2.16,3.74,16.88,16.88,0,0,0-.79,5.33Z"/><path class="cls-14" d="M230.92,200.43c-15.46-6.81-22.12,19.67-22.12,19.67s-11.39-8.5-19.9.79S185,248.48,195.64,257c13.52,13.2,31.33,12.44,48.83,10.54s29.93-2.46,29.93-2.46-14.22-2.45-26.46-20.92S246.39,207.25,230.92,200.43Z"/></g></g></g></g></svg>