<svg xmlns="http://www.w3.org/2000/svg" xmlns:xlink="http://www.w3.org/1999/xlink" viewBox="0 0 440 533"><defs><style>.cls-1{fill:none;}.cls-2{fill:#fff5ee;}.cls-3{fill:#e95b1b;}.cls-4{fill:#0aa672;}.cls-5{fill:#96c44b;}.cls-6{clip-path:url(#clip-path);}.cls-7{opacity:0.5;}.cls-8{fill:#e24d4d;}.cls-9{fill:#f29100;}.cls-10{clip-path:url(#clip-path-2);}.cls-11{opacity:0.75;}.cls-12{fill:#1c171c;}.cls-13{fill:#bf193d;}</style><clipPath id="clip-path"><path class="cls-1" d="M269,159.33c16.21,1.64,56.17,18.42,88,69,19.46,29.72,41.53,97.7-3.72,169.75s-108-81.07-114-104-22.81-39.55-26.53-67.88c-1.67-12.34-3.17-17.25,5.93-40.38S252.75,157.65,269,159.33Z"/></clipPath><clipPath id="clip-path-2"><path class="cls-1" d="M216,254.49c19.28-25.34,11.73-74.13-20.27-88.68s-57.64,6.59-70.1,15.51-60.48,51.53-63.16,106c-2.54,61.32,88.67,92.12,142.74,86.63s73.78-.92,92.1,20.82S289,454.36,289,454.36s37.32-17.38,56.63-45.6,13.23-55.33-11.1-69.68-52.21-9.77-82.06-25.33S196.76,280,216,254.49Z"/></clipPath></defs><g id="Calque_2" data-name="Calque 2"><g id="Calque_2-2" data-name="Calque 2"><rect class="cls-2" width="440" height="533" rx="64.34"/></g><g id="Calque_3" data-name="Calque 3"><g id="Layer_2" data-name="Layer 2"><g id="Layer_1-2" data-name="Layer 1-2"><path class="cls-3" d="M379.58,310.43A159.82,159.82,0,1,1,119.36,186.84c0,.43-1.07.86-1.07,1.29-.07,44.32,47.89,80.24,106.94,80.24,55.44,0,101-31.59,106.42-72.08A159.29,159.29,0,0,1,379.58,310.43Z"/><path class="cls-4" d="M250.67,187.27s-9.45-29.72-26.75-46-43.91-22.4-61.44-28.35S130,71.21,130,71.21s-4.29,24.62.53,34.35a57.72,57.72,0,0,1-24.25-14.64C95.62,80.43,88.12,63.76,88.12,63.76s-3.78,29,8.36,44.84,31.87,20.55,31.87,20.55a54.8,54.8,0,0,1-33.24-9.45c1.09,7.35,5.57,13.43,15.86,21.51,5.47,4.31,19.71,20.42,59.41,10.77s75,38.59,75,38.59Z"/><path class="cls-5" d="M179.4,185.4s9.6-29.7,27-45.86,44-22.25,61.57-28.1,32.68-41.52,32.68-41.52,4.16,24.65-.71,34.35a57.76,57.76,0,0,0,24.3-14.52c10.77-10.33,18.32-27,18.32-27s3.65,29.06-8.56,44.79-31.88,20.27-31.88,20.27a54.82,54.82,0,0,0,33.19-9.27c-1.14,7.34-5.65,13.4-16,21.43-5.5,4.28-19.82,20.27-59.47,10.49s-75.19,38.28-75.19,38.28Z"/><path class="cls-3" d="M269,159.33c16.21,1.64,56.17,18.42,88,69,19.46,29.72,41.53,97.7-3.72,169.75s-108-81.07-114-104-27-14.37-30.81-42.69c-1.67-12.34,1-42.49,10.13-65.62S252.75,157.65,269,159.33Z"/><g class="cls-6"><g class="cls-7"><ellipse class="cls-8" cx="230.55" cy="230.41" rx="12.95" ry="7.37" transform="translate(-83.11 141.76) rotate(-29.2)"/><ellipse class="cls-8" cx="308.7" cy="186.22" rx="12.95" ry="7.37" transform="translate(-51.62 174.26) rotate(-29.2)"/></g></g><path class="cls-9" d="M216,254.49c19.28-25.34,11.73-74.13-20.27-88.68s-57.64,6.59-70.1,15.51-60.48,51.53-63.16,106c-2.54,61.32,30.4,110.29,97,97.37S262.1,360.22,283,383.73,268,456.34,260.5,465c26.78-10,48.34-17.74,77.5-62.28,18.3-34,5.22-78-19.63-91.89C270.23,288,238.11,312,219.69,302S202.71,270.86,216,254.49Z"/><g class="cls-10"><g class="cls-7"><ellipse class="cls-8" cx="128.95" cy="188.7" rx="7.37" ry="12.95" transform="translate(-98.95 206.03) rotate(-60)"/><ellipse class="cls-8" cx="219.75" cy="228.65" rx="7.37" ry="12.95" transform="translate(-88.14 304.63) rotate(-60)"/></g></g><g class="cls-11"><circle class="cls-12" cx="241.02" cy="210.66" r="4.48"/><circle class="cls-12" cx="284.47" cy="186.94" r="4.48"/><path class="cls-12" d="M265.67,214.23a12.9,12.9,0,0,1-11.15-6.13,1.75,1.75,0,0,1,.66-2.33,1.7,1.7,0,0,1,2.32.63v0a9.64,9.64,0,0,0,12.19,3.47,7.24,7.24,0,0,0,3.57-4.56,9.73,9.73,0,0,0-.78-7.4,1.7,1.7,0,1,1,3-1.67,13,13,0,0,1,1.09,10.13,10.64,10.64,0,0,1-5.27,6.59A12.07,12.07,0,0,1,265.67,214.23Z"/></g><g class="cls-11"><circle class="cls-12" cx="196.86" cy="210.66" r="4.48"/><circle class="cls-12" cx="153.38" cy="186.94" r="4.48"/><path class="cls-12" d="M163.82,197.1a10.57,10.57,0,0,0,3.55,14.32,11.27,11.27,0,0,0,14.46-4.16"/></g><path class="cls-13" d="M230.94,234.19c-15.94-7-22.81,20.27-22.81,20.27s-11.73-8.76-20.49.81-4.06,28.43,6.94,37.25c13.93,13.6,32.28,12.82,50.32,10.87s30.83-2.54,30.83-2.54-14.65-2.53-27.26-21.56S246.87,241.21,230.94,234.19Z"/></g></g></g></g></svg>