<svg xmlns="http://www.w3.org/2000/svg" xmlns:xlink="http://www.w3.org/1999/xlink" viewBox="0 0 126.29 189.11"><defs><style>.cls-1{fill:none;}.cls-2{fill:#e95b1b;}.cls-3{fill:#0aa672;}.cls-4{fill:#96c44b;}.cls-5{clip-path:url(#clip-path);}.cls-6{opacity:0.5;}.cls-7{fill:#e24d4d;}.cls-8{fill:#f29100;}.cls-9{clip-path:url(#clip-path-2);}.cls-10{opacity:0.75;}.cls-11{fill:#1c171c;}.cls-12{fill:#523515;}.cls-13{fill:#bf193d;}</style><clipPath id="clip-path"><path class="cls-1" d="M82.51,38.14c6.4.65,22.17,7.27,34.75,27.24,7.68,11.73,16.39,38.56-1.47,67s-42.61-32-45-41.07-9-15.61-10.47-26.79c-.66-4.87-1.25-6.81,2.34-15.94S76.1,37.48,82.51,38.14Z"/></clipPath><clipPath id="clip-path-2"><path class="cls-1" d="M61.6,75.7c7.61-10,4.63-29.26-8-35S30.85,43.3,25.93,46.82,2.06,67.16,1,88.64C0,112.84,36,125,57.34,122.83s29.12-.36,36.35,8.22-3.3,23.54-3.3,23.54,14.73-6.86,22.35-18,5.22-21.84-4.38-27.5-20.61-3.86-32.39-10S54,85.75,61.6,75.7Z"/></clipPath></defs><title>Asset 9</title><g id="Layer_2" data-name="Layer 2"><g id="Layer_1-2" data-name="Layer 1"><path class="cls-2" d="M126.16,97.78A63.08,63.08,0,1,1,23.45,49c0,.17-.42.34-.42.51C23,67,41.93,81.18,65.24,81.18c21.88,0,39.86-12.47,42-28.45A62.87,62.87,0,0,1,126.16,97.78Z"/><path class="cls-3" d="M75.28,49.17S71.55,37.44,64.72,31,47.39,22.16,40.47,19.81,27.63,3.36,27.63,3.36s-1.69,9.72.21,13.56a22.82,22.82,0,0,1-9.57-5.78C14.08,7,11.12.42,11.12.42s-1.49,11.46,3.3,17.7S27,26.23,27,26.23A21.65,21.65,0,0,1,13.88,22.5c.43,2.9,2.2,5.3,6.26,8.49,2.16,1.7,7.78,8.06,23.45,4.25S73.2,50.47,73.2,50.47Z"/><path class="cls-4" d="M47.15,48.43s3.79-11.72,10.65-18.1,17.37-8.78,24.3-11.09S95,2.85,95,2.85s1.64,9.73-.28,13.56a22.8,22.8,0,0,0,9.59-5.73C108.56,6.6,111.54,0,111.54,0s1.44,11.47-3.38,17.68-12.58,8-12.58,8a21.63,21.63,0,0,0,13.1-3.66c-.45,2.9-2.23,5.29-6.31,8.46-2.17,1.69-7.82,8-23.47,4.14S49.22,49.73,49.22,49.73Z"/><path class="cls-2" d="M82.51,38.14c6.4.65,22.17,7.27,34.75,27.24,7.68,11.73,16.39,38.56-1.47,67s-42.61-32-45-41.07S60.15,85.64,58.63,74.46c-.66-4.87.41-16.77,4-25.9S76.1,37.48,82.51,38.14Z"/><g class="cls-5"><g class="cls-6"><ellipse class="cls-7" cx="67.34" cy="66.2" rx="5.11" ry="2.91" transform="translate(-23.74 41.26) rotate(-29.2)"/><ellipse class="cls-7" cx="98.18" cy="48.76" rx="5.11" ry="2.91" transform="translate(-11.31 54.09) rotate(-29.2)"/></g></g><path class="cls-8" d="M61.6,75.7c7.61-10,4.63-29.26-8-35S30.85,43.3,25.93,46.82,2.06,67.16,1,88.64c-1,24.2,12,43.53,38.27,38.43s40.52-9.64,48.76-.36-5.9,28.66-8.87,32.07c10.57-3.94,19.08-7,30.59-24.58,7.22-13.42,2.06-30.79-7.75-36.27-19-9-31.68.46-38.95-3.46S56.35,82.16,61.6,75.7Z"/><g class="cls-9"><g class="cls-6"><ellipse class="cls-7" cx="27.24" cy="49.73" rx="2.91" ry="5.11" transform="translate(-29.45 48.46) rotate(-60)"/><ellipse class="cls-7" cx="63.08" cy="65.5" rx="2.91" ry="5.11" transform="translate(-25.19 87.38) rotate(-60)"/></g></g><g class="cls-10"><circle class="cls-11" cx="71.47" cy="58.4" r="1.77"/><circle class="cls-11" cx="88.62" cy="49.04" r="1.77"/><path class="cls-11" d="M81.2,59.81a5.08,5.08,0,0,1-4.4-2.42.69.69,0,0,1,.26-.92.67.67,0,0,1,.92.26,3.8,3.8,0,0,0,4.81,1.37,2.86,2.86,0,0,0,1.41-1.8,3.84,3.84,0,0,0-.31-2.92.67.67,0,0,1,1.17-.66,5.13,5.13,0,0,1,.43,4,4.19,4.19,0,0,1-2.08,2.6A4.76,4.76,0,0,1,81.2,59.81Z"/></g><g class="cls-10"><circle class="cls-11" cx="54.04" cy="58.4" r="1.77"/><circle class="cls-11" cx="36.88" cy="49.04" r="1.77"/><path class="cls-11" d="M41,53.05A4.17,4.17,0,0,0,42.4,58.7a4.45,4.45,0,0,0,5.71-1.64"/></g><path class="cls-12" d="M8.44,176a6.44,6.44,0,0,0-1.08-1.85A2.07,2.07,0,0,0,6,173.6v-.47l.34,0a3.46,3.46,0,0,1,.46,0,4.18,4.18,0,0,1,2.26.62A4.9,4.9,0,0,1,10.8,176l2.12,5.07,3.3-7.78H17.4l-4.84,11.32h-.47Z"/><path class="cls-12" d="M20.93,183.87a4.75,4.75,0,0,1-1.67-2.07,7.82,7.82,0,0,1,0-5.86,4.83,4.83,0,0,1,1.64-2.09,4.19,4.19,0,0,1,2.51-.76A4.47,4.47,0,0,1,27,174.42a5.7,5.7,0,0,1,1.16,3.85l0,.94H20.93a5.68,5.68,0,0,0,.85,3.23,2.67,2.67,0,0,0,2.34,1.25,3.46,3.46,0,0,0,1.87-.47,4.88,4.88,0,0,0,1.43-1.41l.47.35a5.18,5.18,0,0,1-1.82,1.89,4.86,4.86,0,0,1-2.43.59A4.68,4.68,0,0,1,20.93,183.87Zm4.95-5.6a6.56,6.56,0,0,0-.61-3.16A2,2,0,0,0,23.41,174a1.75,1.75,0,0,0-1.27.55,3.69,3.69,0,0,0-.89,1.52,7,7,0,0,0-.32,2.17Z"/><path class="cls-12" d="M31.15,188.24a3,3,0,0,1-1.4-2.78,2.72,2.72,0,0,1,.73-1.89,4.35,4.35,0,0,1,1.86-1.17A1.58,1.58,0,0,1,31.4,181a1.13,1.13,0,0,1,.21-.73,3.84,3.84,0,0,1,.61-.56A3.3,3.3,0,0,1,31,178.51a3.55,3.55,0,0,1-.5-1.89c0-2.36,1.49-3.53,4.48-3.53H39.3v.58l-1.54.24V174A3.1,3.1,0,0,1,39,175.08a2.64,2.64,0,0,1,.46,1.54q0,3.54-4.47,3.54c-1.65,0-2.48.27-2.48.82s.83.83,2.48.83a7,7,0,0,1,3.73.9,3.4,3.4,0,0,1,0,5.53,7.15,7.15,0,0,1-3.78.87A7.16,7.16,0,0,1,31.15,188.24Zm6-.74a2.48,2.48,0,0,0,.83-2c0-1.57-.94-2.47-2.83-2.71l-1.3-.12a3.39,3.39,0,0,0-1.48,1.06,2.84,2.84,0,0,0-.52,1.77,2.48,2.48,0,0,0,.83,2,3.42,3.42,0,0,0,2.24.67A3.41,3.41,0,0,0,37.17,187.5Zm-.53-8.82a2.78,2.78,0,0,0,.65-2.06,2.83,2.83,0,0,0-.65-2,2.25,2.25,0,0,0-1.7-.68,2.31,2.31,0,0,0-1.71.65,3.59,3.59,0,0,0,0,4.12,2.56,2.56,0,0,0,3.41,0Z"/><path class="cls-12" d="M44,183.87a4.82,4.82,0,0,1-1.67-2.07,7.82,7.82,0,0,1,0-5.86A4.83,4.83,0,0,1,44,173.85a4.19,4.19,0,0,1,2.51-.76,4.47,4.47,0,0,1,3.55,1.33,5.64,5.64,0,0,1,1.16,3.85l0,.94H44a5.68,5.68,0,0,0,.85,3.23,2.67,2.67,0,0,0,2.34,1.25,3.44,3.44,0,0,0,1.87-.47,4.88,4.88,0,0,0,1.43-1.41l.47.35a5.18,5.18,0,0,1-1.82,1.89,4.85,4.85,0,0,1-2.42.59A4.69,4.69,0,0,1,44,183.87Zm4.95-5.6a6.56,6.56,0,0,0-.61-3.16A2,2,0,0,0,46.51,174a1.75,1.75,0,0,0-1.27.55,3.69,3.69,0,0,0-.89,1.52,7,7,0,0,0-.32,2.17Z"/><path class="cls-12" d="M54,183.69a1.65,1.65,0,0,1-.49-.9,8.66,8.66,0,0,1-.1-1.57h.47a2.94,2.94,0,0,0,1,1.82,3.51,3.51,0,0,0,2.27.65,3.43,3.43,0,0,0,2-.45,1.38,1.38,0,0,0,.65-1.2,1.6,1.6,0,0,0-.51-1.18,5.16,5.16,0,0,0-1.61-.94l-1.42-.59A5.94,5.94,0,0,1,54.1,178a2.83,2.83,0,0,1,.38-4.11,4.54,4.54,0,0,1,2.8-.81c1.73,0,2.91.31,3.54.94a1.65,1.65,0,0,1,.49.89,8.57,8.57,0,0,1,.1,1.58h-.47a2.85,2.85,0,0,0-1-1.82,3.37,3.37,0,0,0-2.2-.65,2.84,2.84,0,0,0-1.73.46,1.39,1.39,0,0,0-.62,1.19c0,.82.62,1.48,1.88,2l1.42.59a7.27,7.27,0,0,1,2.33,1.4,2.8,2.8,0,0,1-.42,4.15,5.08,5.08,0,0,1-3,.82C55.83,184.64,54.61,184.32,54,183.69Z"/><path class="cls-12" d="M64.8,176.15a3.73,3.73,0,0,0-.33-1.78,1.4,1.4,0,0,0-1.32-.58h-.47v-.47H64.8a2.89,2.89,0,0,1,1.36.25,1.38,1.38,0,0,1,.65.81h.11a3.43,3.43,0,0,1,1.21-.92,4.51,4.51,0,0,1,2-.37,3.56,3.56,0,0,1,3.13,1.63,7.24,7.24,0,0,1,1.11,4.14A7.08,7.08,0,0,1,73.21,183a3.85,3.85,0,0,1-3.34,1.63,6.22,6.22,0,0,1-1.58-.19,8.52,8.52,0,0,1-1.37-.52v4.95H64.8Zm6.59,6.22a7.33,7.33,0,0,0,.72-3.51,7.76,7.76,0,0,0-.68-3.5,2.18,2.18,0,0,0-2-1.33,2.8,2.8,0,0,0-2.48,1.41V183a12.65,12.65,0,0,0,1.23.51,2.82,2.82,0,0,0,1,.19A2.37,2.37,0,0,0,71.39,182.37Z"/><path class="cls-12" d="M77.13,171.67a3.73,3.73,0,0,0-.33-1.78,1.4,1.4,0,0,0-1.32-.58H75v-.47h2.12a3,3,0,0,1,1.31.23,1.28,1.28,0,0,1,.62.81,6.12,6.12,0,0,1,.19,1.79v2.59a3.93,3.93,0,0,1,1.29-.83,4.38,4.38,0,0,1,1.78-.34,4.29,4.29,0,0,1,2.88.94,4.12,4.12,0,0,1,1.12,3.3v7.07H84.2v-7.07a3.4,3.4,0,0,0-.74-2.42,2.46,2.46,0,0,0-1.85-.76,3.16,3.16,0,0,0-2.36,1.25v9H77.13Z"/><path class="cls-12" d="M91.2,183.87a4.75,4.75,0,0,1-1.67-2.07,7.82,7.82,0,0,1,0-5.86,4.83,4.83,0,0,1,1.64-2.09,4.19,4.19,0,0,1,2.51-.76,4.48,4.48,0,0,1,3.55,1.33,5.7,5.7,0,0,1,1.16,3.85l0,.94H91.2a5.68,5.68,0,0,0,.85,3.23,2.67,2.67,0,0,0,2.33,1.25,3.48,3.48,0,0,0,1.88-.47,4.88,4.88,0,0,0,1.43-1.41l.47.35a5.18,5.18,0,0,1-1.82,1.89,4.86,4.86,0,0,1-2.43.59A4.65,4.65,0,0,1,91.2,183.87Zm5-5.6a6.56,6.56,0,0,0-.61-3.16A2,2,0,0,0,93.68,174a1.75,1.75,0,0,0-1.27.55,3.69,3.69,0,0,0-.89,1.52,7,7,0,0,0-.32,2.17Z"/><path class="cls-12" d="M101.29,176.15a3.73,3.73,0,0,0-.33-1.78,1.4,1.4,0,0,0-1.32-.58h-.23v-.47h1.88a2.89,2.89,0,0,1,1.36.25,1.38,1.38,0,0,1,.65.81h.11a3.52,3.52,0,0,1,2.83-1.29,2.34,2.34,0,0,1,1.42.35,3.53,3.53,0,0,1,.82,1.06l-.94.71a1.44,1.44,0,0,0-.76-.53,3.27,3.27,0,0,0-1.13-.18,2.68,2.68,0,0,0-1.29.32,2.54,2.54,0,0,0-1,.86v8.72h-2.12Z"/><path class="cls-12" d="M111.85,183.87a4.75,4.75,0,0,1-1.67-2.07,7.82,7.82,0,0,1,0-5.86,4.83,4.83,0,0,1,1.64-2.09,4.19,4.19,0,0,1,2.51-.76,4.47,4.47,0,0,1,3.55,1.33,5.7,5.7,0,0,1,1.16,3.85l0,.94h-7.15a5.68,5.68,0,0,0,.85,3.23,2.67,2.67,0,0,0,2.34,1.25,3.46,3.46,0,0,0,1.87-.47,4.88,4.88,0,0,0,1.43-1.41l.47.35a5.18,5.18,0,0,1-1.82,1.89,4.86,4.86,0,0,1-2.43.59A4.68,4.68,0,0,1,111.85,183.87Zm5-5.6a6.56,6.56,0,0,0-.61-3.16,2,2,0,0,0-1.86-1.08,1.79,1.79,0,0,0-1.28.55,3.79,3.79,0,0,0-.88,1.52,7,7,0,0,0-.32,2.17Z"/><path class="cls-13" d="M67.49,67.69c-6.29-2.77-9,8-9,8s-4.63-3.46-8.09.32-1.6,11.22,2.74,14.7C58.64,96.08,65.88,95.77,73,95s12.17-1,12.17-1-5.78-1-10.76-8.51S73.78,70.46,67.49,67.69Z"/></g></g></svg>